<?xml version="1.0" encoding="UTF-8" standalone="no"?>
<!-- Created with Inkscape (http://www.inkscape.org/) -->

<svg
   xmlns:dc="http://purl.org/dc/elements/1.1/"
   xmlns:cc="http://creativecommons.org/ns#"
   xmlns:rdf="http://www.w3.org/1999/02/22-rdf-syntax-ns#"
   xmlns:svg="http://www.w3.org/2000/svg"
   xmlns="http://www.w3.org/2000/svg"
   xmlns:sodipodi="http://sodipodi.sourceforge.net/DTD/sodipodi-0.dtd"
   xmlns:inkscape="http://www.inkscape.org/namespaces/inkscape"
   width="512"
   height="512"
   viewBox="0 0 135.46666 135.46667"
   version="1.1"
   id="svg8"
   inkscape:version="0.92.2 5c3e80d, 2017-08-06"
   sodipodi:docname="cipcirip.svg">
  <defs
     id="defs2" />
  <sodipodi:namedview
     id="base"
     pagecolor="#ffffff"
     bordercolor="#666666"
     borderopacity="1.0"
     inkscape:pageopacity="0.0"
     inkscape:pageshadow="2"
     inkscape:zoom="0.49497475"
     inkscape:cx="298.29466"
     inkscape:cy="66.907055"
     inkscape:document-units="mm"
     inkscape:current-layer="layer1"
     showgrid="false"
     units="px"
     inkscape:snap-global="false"
     inkscape:window-width="1680"
     inkscape:window-height="1005"
     inkscape:window-x="0"
     inkscape:window-y="1"
     inkscape:window-maximized="1" />
  <metadata
     id="metadata5">
    <rdf:RDF>
      <cc:Work
         rdf:about="">
        <dc:format>image/svg+xml</dc:format>
        <dc:type
           rdf:resource="http://purl.org/dc/dcmitype/StillImage" />
        <dc:title></dc:title>
      </cc:Work>
    </rdf:RDF>
  </metadata>
  <g
     inkscape:label="Layer 1"
     inkscape:groupmode="layer"
     id="layer1"
     transform="translate(0,-161.53332)">
    <g
       id="cipcirip-logo"
       inkscape:export-xdpi="96"
       inkscape:export-ydpi="96">
      <g
         id="g1594">
        <g
           id="g1281"
           transform="matrix(0.26480987,0,0,0.26480987,2.5701873,159.71894)">
          <path
             id="path1271"
             d="m 354.964,264.556 -62.649,-13.268 c -15.803,-3.347 -29.303,11.669 -24.3,27.028 l 19.834,60.89 c 5.003,15.359 24.757,19.543 35.557,7.53 l 42.815,-47.622 c 10.801,-12.012 4.547,-31.211 -11.257,-34.558 z"
             inkscape:connector-curvature="0"
             style="fill:#f4dd45" />
          <path
             id="path1273"
             d="m 319.479,285.503 c 23.251,71.379 -5.071,147.157 -64.455,187.02 -12.307,8.258 -25.939,14.97 -40.715,19.783 C 128.155,520.37 35.567,473.281 7.503,387.127 28.86,402.193 50.086,401.558 65.919,397.178 -0.871,356.221 22.039,294.079 22.039,294.079 l 40.189,20.448 c -26,-37.943 -2.879,-57.948 -2.879,-57.948 l 46.036,34.004 60.755,44.869 c -13.795,-42.35 9.349,-87.856 51.689,-101.648 7.464,-2.431 15.028,-3.717 22.505,-3.944 0.051,-0.006 0.095,0 0.146,-0.005 34.854,-1.027 67.65,20.809 78.999,55.648 z"
             inkscape:connector-curvature="0"
             style="fill:#6bbef6" />
          <g
             id="g1279"
             style="fill:#528ecb">
            <path
               id="path1275"
               d="m 240.333,229.86 c -37.509,1.47 -71.596,67.073 -47.987,117.017 0,0 -5.627,11.235 -26.207,-11.425 -13.795,-42.35 9.349,-87.856 51.689,-101.648 7.464,-2.431 15.027,-3.717 22.505,-3.944 z"
               inkscape:connector-curvature="0" />
            <path
               id="path1277"
               d="m 255.023,472.527 c -12.308,8.254 -25.939,14.969 -40.717,19.782 C 128.153,520.373 35.566,473.284 7.502,387.131 28.86,402.195 50.086,401.554 65.921,397.181 -0.868,356.217 22.041,294.078 22.041,294.078 l 40.184,20.446 C 36.229,276.582 59.343,256.577 59.343,256.577 l 46.042,34.004 c -13.954,74.077 19.374,192.121 149.638,181.946 z"
               inkscape:connector-curvature="0" />
          </g>
        </g>
        <path
           id="path1287"
           d="m 96.980204,227.8328 -14.25922,-3.0183 c -6.010388,-5.54565 -14.767122,-7.77747 -23.081887,-5.07005 -10.488854,3.41631 -16.918438,13.60514 -16.028941,24.1541 L 19.464262,226.06493 c -0.747293,-0.55213 -1.777668,-0.51214 -2.479944,0.0961 -0.204433,0.17689 -2.020235,1.81845 -2.822079,4.90799 -0.668645,2.57686 -0.366497,5.12089 0.384769,7.4205 l -5.2392627,-2.66664 c -0.505523,-0.25739 -1.097108,-0.28626 -1.625403,-0.0792 -0.528296,0.20709 -0.942724,0.62999 -1.138948,1.16225 -0.06885,0.1867 -1.675981,4.63683 -0.929482,10.5209 0.579668,4.56771 2.714301,10.77061 9.2365677,16.20875 -3.23783,-0.005 -6.3011507,-1.01449 -9.1494457,-3.02254 -0.699098,-0.49281 -1.635466,-0.48302 -2.323707,0.0252 -0.688505,0.5079 -0.974235,1.39952 -0.70916,2.21301 2.403679,7.38159 6.674003,14.05162 12.3494077,19.28876 0.806081,0.74385 2.062869,0.69328 2.806455,-0.1128 0.743851,-0.80609 0.693537,-2.06261 -0.112544,-2.80646 -3.904887,-3.60327 -7.080751,-7.95118 -9.3472587,-12.76093 3.8445097,1.38548 7.9795157,1.51524 12.1910517,0.35246 0.762388,-0.21052 1.327492,-0.85322 1.438182,-1.63653 0.110691,-0.7833 -0.253688,-1.55734 -0.928158,-1.97097 C 8.5546253,255.53058 8.8665713,245.01366 9.7081373,240.48382 l 8.4381667,4.29468 c 0.808994,0.41178 1.794351,0.22245 2.393351,-0.45971 0.599,-0.68215 0.659112,-1.68392 0.14591,-2.4328 -4.000217,-5.83959 -3.029689,-9.65471 -2.024736,-11.47607 l 26.725142,19.73866 c 0.694596,0.51294 1.640762,0.5185 2.341449,0.0135 0.700422,-0.50499 0.994096,-1.40481 0.726903,-2.22599 -3.306946,-10.15573 2.262271,-21.108 12.414551,-24.41441 10.156254,-3.30695 21.10826,2.26333 24.41468,12.41746 3.43061,10.52911 2.55541,21.76367 -2.46459,31.63419 -5.02,9.87053 -13.583157,17.19517 -24.112792,20.62472 -11.455145,3.73329 -23.947816,2.30067 -34.274606,-3.93004 -0.938751,-0.5667 -2.160054,-0.26455 -2.726483,0.67447 -0.566693,0.93928 -0.264809,2.15979 0.674471,2.72648 7.17317,4.32805 15.298066,6.54266 23.484663,6.54266 4.727651,0 9.477281,-0.73935 14.072527,-2.23685 11.538031,-3.75818 20.92183,-11.78457 26.42273,-22.60099 2.93621,-5.77366 4.5775,-11.97312 4.89872,-18.25362 l 9.768036,-10.86435 c 1.82401,-2.02739 2.40844,-4.78618 1.5637,-7.37999 -0.84474,-2.59381 -2.942296,-4.47899 -5.609726,-5.04304 z m 1.09287,9.76672 -6.89909,7.67339 c -0.2815,-3.5503 -0.98245,-7.0924 -2.11372,-10.56458 -0.58046,-1.78218 -1.35741,-3.44624 -2.29722,-4.97817 l 9.39519,1.98873 c 1.26261,0.26692 2.25538,1.15933 2.65525,2.38699 0.3996,1.22766 0.12313,2.5337 -0.74041,3.49364 z"
           inkscape:connector-curvature="0"
           style="stroke-width:0.26480988" />
        <path
           id="path1289"
           d="m 77.318599,239.16772 c 0.206022,0 0.409926,-0.031 0.608003,-0.0956 0.726109,-0.23674 1.269764,-0.87996 1.530866,-1.81156 0.258455,-0.92207 0.20867,-2.01864 -0.139554,-3.08768 -0.348225,-1.06904 -0.95411,-1.98449 -1.705906,-2.57739 -0.75921,-0.599 -1.577207,-0.79867 -2.30411,-0.5622 -0.726109,0.23674 -1.269764,0.87997 -1.530866,1.81157 -0.258455,0.92207 -0.20867,2.01864 0.139555,3.08768 0.626275,1.9212 2.061015,3.23518 3.402012,3.23518 z"
           inkscape:connector-curvature="0"
           style="stroke-width:0.26480988" />
        <path
           id="path1291"
           d="m 68.386562,242.07719 c 0.206022,0 0.409926,-0.031 0.608268,-0.0956 0.726109,-0.23648 1.269764,-0.87996 1.530866,-1.81156 0.25819,-0.92207 0.20867,-2.01865 -0.139555,-3.08769 -0.348225,-1.06903 -0.95411,-1.98448 -1.70564,-2.57739 -0.759475,-0.59927 -1.578002,-0.79867 -2.304111,-0.56219 -1.489026,0.48513 -2.113183,2.68279 -1.391311,4.89898 0.625746,1.92146 2.060486,3.23571 3.401483,3.23545 z"
           inkscape:connector-curvature="0"
           style="stroke-width:0.26480988" />
        <g
           id="g1574"
           transform="translate(-8.8825178,-10.447959)">
          <path
             id="path1442"
             d="m 129.28119,179.11457 c -0.82584,-0.51051 -1.85712,-0.55693 -2.72527,-0.12285 l -22.40892,11.2048 c -0.94869,0.47435 -1.54862,1.4442 -1.54862,2.50551 v 16.91811 c -0.45251,-0.073 -0.92071,-0.11194 -1.40052,-0.11194 -3.86711,0 -7.00257,2.50824 -7.00257,5.60206 0,3.09383 3.13546,5.60207 7.00257,5.60207 3.8678,0 7.00258,-2.50824 7.00258,-5.60207 v -20.67738 l 16.80686,-8.40309 v 12.38623 c -0.45251,-0.073 -0.92071,-0.11193 -1.40052,-0.11193 -3.86779,0 -7.00257,2.50823 -7.00257,5.60206 0,3.09382 3.13478,5.60205 7.00257,5.60205 3.86712,0 7.00258,-2.50823 7.00258,-5.60205 v -22.40824 c 0,-0.97122 -0.50302,-1.87282 -1.32817,-2.38334 z m 0,0"
             inkscape:connector-curvature="0"
             style="fill:#fab968;fill-opacity:1;stroke-width:0.1747231" />
          <path
             id="path1444"
             d="m 123.60678,205.30666 c -2.93889,0 -5.45259,-1.44897 -6.49205,-3.50129 -0.32829,0.64907 -0.51052,1.35752 -0.51052,2.10078 0,3.09382 3.13478,5.60205 7.00257,5.60205 3.86712,0 7.00258,-2.50823 7.00258,-5.60205 v -4.20155 c 0,3.09383 -3.13546,5.60206 -7.00258,5.60206 z m 0,0"
             inkscape:connector-curvature="0"
             style="fill:#f9a842;fill-opacity:1;stroke-width:0.1747231" />
          <path
             id="path1446"
             d="m 101.19786,216.51078 c -2.93821,0 -5.45259,-1.44898 -6.49137,-3.50129 -0.32829,0.64907 -0.5112,1.35752 -0.5112,2.10077 0,3.09383 3.13546,5.60207 7.00257,5.60207 3.8678,0 7.00258,-2.50824 7.00258,-5.60207 v -4.20154 c 0,3.09383 -3.13478,5.60206 -7.00258,5.60206 z m 0,0"
             inkscape:connector-curvature="0"
             style="fill:#f9a842;fill-opacity:1;stroke-width:0.1747231" />
          <path
             style="stroke-width:0.1747231"
             id="path1466"
             d="m 132.00987,203.99146 v -22.40824 c 0,-2.21202 -1.82503,-4.08006 -4.04388,-4.1176 -0.66067,-0.0109 -1.3193,0.14265 -1.91035,0.43818 l -22.40824,11.20412 c -1.40325,0.70094 -2.27413,2.11101 -2.27413,3.67942 v 15.49371 c -0.0294,0 -0.0587,0 -0.088,0 -4.58511,0 -8.31572,3.10202 -8.31572,6.91521 0,3.81251 3.73061,6.91521 8.31572,6.91521 4.58512,0 8.31573,-3.1027 8.31573,-6.91521 v -6.47772 c 0,-0.72483 -0.58764,-1.31316 -1.31315,-1.31316 -0.72483,0 -1.31247,0.58833 -1.31247,1.31316 v 6.47772 c 0,2.3649 -2.5526,4.28891 -5.69011,4.28891 -3.13682,0 -5.68942,-1.92401 -5.68942,-4.28891 0,-2.3649 2.5526,-4.28959 5.68942,-4.28959 0.40064,0 0.80059,0.0321 1.19031,0.0956 0.78693,0.12764 1.52337,-0.4996 1.52337,-1.29609 v -16.91879 c 0,-0.56717 0.31531,-1.077 0.82242,-1.3309 l 22.40892,-11.20412 c 0.97463,-0.48731 2.15332,0.24502 2.15332,1.3309 v 22.40824 c 0,2.36559 -2.55259,4.28959 -5.68942,4.28959 -3.1375,0 -5.6901,-1.924 -5.6901,-4.28959 0,-2.36491 2.5526,-4.28891 5.6901,-4.28891 0.39996,0 0.80059,0.0321 1.18962,0.0956 0.78694,0.129 1.52405,-0.50028 1.52405,-1.29609 V 186.1151 c 0,-0.95756 -1.04219,-1.60322 -1.90079,-1.17392 l -16.80618,8.40309 c -0.445,0.2225 -0.72551,0.67705 -0.72551,1.1746 v 8.15943 c 0,0.72552 0.58764,1.31316 1.31247,1.31316 0.72551,0 1.31315,-0.58764 1.31315,-1.31316 v -7.3486 l 14.18056,-7.08994 v 8.83717 c -0.0294,0 -0.058,-7e-4 -0.0874,-7e-4 -4.58511,0 -8.31572,3.10271 -8.31572,6.91522 0,3.81319 3.73061,6.91521 8.31572,6.91521 4.58512,0 8.31573,-3.10202 8.31573,-6.91521 z m 0,0"
             inkscape:connector-curvature="0" />
        </g>
        <g
           id="g1563"
           transform="translate(39.38359,8.5998304)">
          <path
             inkscape:connector-curvature="0"
             d="m 75.988597,213.70975 c 0,-1.54726 -1.881004,-2.80103 -4.201543,-2.80103 -2.320545,0 -4.201549,1.25377 -4.201549,2.80103 0,1.54725 1.881004,2.80103 4.201549,2.80103 2.320539,0 4.201543,-1.25378 4.201543,-2.80103 z m 0,0"
             id="path1460"
             style="fill:#f09784;stroke-width:0.1747231" />
          <path
             inkscape:connector-curvature="0"
             d="m 88.59323,208.10769 c 0,-1.54726 -1.881004,-2.80103 -4.201548,-2.80103 -2.320539,0 -4.201544,1.25377 -4.201544,2.80103 0,1.54657 1.881005,2.80103 4.201544,2.80103 2.320544,0 4.201548,-1.25446 4.201548,-2.80103 z m 0,0"
             id="path1462"
             style="fill:#f09784;stroke-width:0.1747231" />
          <path
             style="stroke-width:0.1747231"
             id="path1474"
             d="m 89.39655,194.48748 c -0.37266,-0.24229 -0.84291,-0.27915 -1.249,-0.099 l -12.604634,5.60274 c -0.474344,0.21021 -0.780114,0.68046 -0.780114,1.19986 v 9.08219 c -0.835391,-0.37675 -1.82162,-0.59174 -2.888391,-0.59174 -3.092461,0 -5.514696,1.80729 -5.514696,4.11418 0,2.30689 2.422235,4.11418 5.514696,4.11418 3.092466,0 5.514698,-1.80729 5.514698,-4.11418 v -11.7515 l 9.979011,-4.43496 v 7.06195 c -0.835398,-0.37675 -1.82231,-0.59174 -2.889076,-0.59174 -3.092461,0 -5.514696,1.80729 -5.514696,4.11418 0,2.30689 2.422235,4.11419 5.514696,4.11419 3.092466,0 5.514696,-1.8073 5.514696,-4.11419 v -12.60463 c 0,-0.445 -0.22454,-0.85928 -0.59719,-1.10157 z m -17.522139,20.79614 c -1.763608,0 -2.888391,-0.88112 -2.888391,-1.48787 0,-0.60676 1.124783,-1.48856 2.888391,-1.48856 1.76293,0 2.888391,0.8818 2.888391,1.48856 0,0.60675 -1.124778,1.48787 -2.888391,1.48787 z m 12.604633,-5.60206 c -1.76293,0 -2.888391,-0.88112 -2.888391,-1.48788 0,-0.60743 1.125461,-1.48855 2.888391,-1.48855 1.763613,0 2.889076,0.88112 2.889076,1.48855 0,0.60676 -1.125463,1.48788 -2.889076,1.48788 z m 0,0"
             inkscape:connector-curvature="0" />
        </g>
      </g>
      <rect
         y="161.53333"
         x="0"
         height="135.46666"
         width="135.46666"
         id="rect1615"
         style="fill:none;fill-opacity:1;stroke:none;stroke-width:4.16364431;stroke-linecap:round;stroke-linejoin:round;stroke-miterlimit:4;stroke-dasharray:none;stroke-dashoffset:0;stroke-opacity:1;paint-order:normal" />
    </g>
  </g>
</svg>
