<svg height="512pt" viewBox="-8 0 512 512.00067" width="512pt" xmlns="http://www.w3.org/2000/svg"><path d="m360.121094 153.695312c-4.726563-2.921874-10.628906-3.1875-15.597656-.703124l-128.253907 64.128906c-5.429687 2.714844-8.863281 8.265625-8.863281 14.339844v96.828124c-2.589844-.417968-5.269531-.640624-8.015625-.640624-22.132813 0-40.078125 14.355468-40.078125 32.0625 0 17.707031 17.945312 32.0625 40.078125 32.0625 22.136719 0 40.078125-14.355469 40.078125-32.0625v-118.34375l96.191406-48.09375v70.890624c-2.589844-.417968-5.269531-.640624-8.015625-.640624-22.136719 0-40.078125 14.355468-40.078125 32.0625 0 17.707031 17.941406 32.0625 40.078125 32.0625 22.132813 0 40.078125-14.355469 40.078125-32.0625v-128.25c0-5.558594-2.878906-10.71875-7.601562-13.640626zm0 0" fill="#ffeb85"/><path d="m327.644531 303.601562c-16.820312 0-31.207031-8.292968-37.15625-20.039062-1.878906 3.714844-2.921875 7.769531-2.921875 12.023438 0 17.707031 17.941406 32.0625 40.078125 32.0625 22.132813 0 40.078125-14.355469 40.078125-32.0625v-24.046876c0 17.707032-17.945312 32.0625-40.078125 32.0625zm0 0" fill="#fd3"/><path d="m199.390625 367.726562c-16.816406 0-31.207031-8.292968-37.152344-20.039062-1.878906 3.714844-2.925781 7.769531-2.925781 12.023438 0 17.707031 17.945312 32.0625 40.078125 32.0625 22.136719 0 40.078125-14.355469 40.078125-32.0625v-24.046876c0 17.707032-17.941406 32.0625-40.078125 32.0625zm0 0" fill="#fd3"/><path d="m486.808594 321.695312c-3.289063-8.222656-12.617188-12.21875-20.839844-8.933593l-80.15625 32.066406c-6.085938 2.433594-10.078125 8.328125-10.078125 14.882813v80.800781c-2.589844-.421875-5.269531-.644531-8.011719-.644531-22.136718 0-40.082031 14.355468-40.082031 32.0625 0 17.710937 17.945313 32.0625 40.082031 32.0625 22.132813 0 40.078125-14.351563 40.078125-32.0625 0-.042969-.003906-.089844-.003906-.136719v-101.226563l70.078125-28.035156c8.222656-3.285156 12.222656-12.617188 8.933594-20.835938zm0 0" fill="#fab968"/><path d="m407.796875 448.027344c-.09375 17.644531-18 31.921875-40.074219 31.921875-16.820312 0-31.210937-8.289063-37.15625-20.039063-1.878906 3.710938-2.921875 7.769532-2.921875 12.019532 0 17.710937 17.941407 32.0625 40.078125 32.0625 22.132813 0 40.078125-14.351563 40.078125-32.0625 0-.042969-.003906-.089844-.003906-.136719zm0 0" fill="#f9a842"/><path d="m190.226562 17.101562c-3.289062-8.222656-12.617187-12.21875-20.839843-8.933593l-80.160157 32.066406c-6.085937 2.433594-10.074218 8.328125-10.074218 14.882813v80.800781c-2.589844-.421875-5.269532-.644531-8.011719-.644531-22.136719 0-40.082031 14.355468-40.082031 32.0625 0 17.707031 17.945312 32.0625 40.082031 32.0625 22.132813 0 40.078125-14.355469 40.078125-32.0625 0-.042969-.003906-.089844-.003906-.136719v-101.226563l70.078125-28.035156c8.222656-3.285156 12.222656-12.617188 8.933593-20.835938zm0 0" fill="#fab968"/><path d="m111.214844 143.429688c-.09375 17.644531-18 31.921874-40.074219 31.921874-16.820313 0-31.207031-8.289062-37.15625-20.039062-1.878906 3.714844-2.921875 7.769531-2.921875 12.023438 0 17.707031 17.941406 32.0625 40.078125 32.0625 22.132813 0 40.078125-14.355469 40.078125-32.0625 0-.042969-.003906-.089844-.003906-.136719zm0 0" fill="#f9a842"/><g fill="#f09784"><path d="m231.453125 127.253906c0-8.851562-10.765625-16.03125-24.046875-16.03125s-24.046875 7.179688-24.046875 16.03125c0 8.855469 10.765625 16.03125 24.046875 16.03125s24.046875-7.175781 24.046875-16.03125zm0 0"/><path d="m303.597656 95.191406c0-8.855468-10.769531-16.03125-24.046875-16.03125-13.28125 0-24.050781 7.175782-24.050781 16.03125 0 8.855469 10.769531 16.03125 24.050781 16.03125 13.277344 0 24.046875-7.175781 24.046875-16.03125zm0 0"/><path d="m55.109375 351.695312c0-8.855468-10.765625-16.03125-24.046875-16.03125s-24.046875 7.175782-24.046875 16.03125c0 8.855469 10.765625 16.03125 24.046875 16.03125s24.046875-7.175781 24.046875-16.03125zm0 0"/><path d="m127.25 319.632812c0-8.855468-10.765625-16.03125-24.046875-16.03125s-24.046875 7.175782-24.046875 16.03125c0 8.851563 10.765625 16.03125 24.046875 16.03125s24.046875-7.179687 24.046875-16.03125zm0 0"/></g><path d="m375.738281 296.074219v-128.25c0-12.660157-10.445312-23.351563-23.144531-23.566407-3.78125-.0625-7.550781.816407-10.933594 2.507813l-128.25 64.125c-8.03125 4.011719-13.015625 12.082031-13.015625 21.058594v88.675781c-.167969 0-.335937 0-.503906 0-26.242187 0-47.59375 17.753906-47.59375 39.578125 0 21.820313 21.351563 39.578125 47.59375 39.578125s47.59375-17.757812 47.59375-39.578125v-37.074219c0-4.148437-3.363281-7.515625-7.515625-7.515625-4.148438 0-7.511719 3.367188-7.511719 7.515625v37.074219c0 13.535156-14.609375 24.546875-32.566406 24.546875-17.953125 0-32.5625-11.011719-32.5625-24.546875s14.609375-24.550781 32.5625-24.550781c2.292969 0 4.582031.183594 6.8125.546875 4.503906.730469 8.71875-2.859375 8.71875-7.417969v-96.832031c0-3.246094 1.804687-6.164063 4.707031-7.617188l128.253906-64.125c5.578126-2.789062 12.324219 1.402344 12.324219 7.617188v128.25c0 13.539062-14.609375 24.550781-32.5625 24.550781-17.957031 0-32.566406-11.011719-32.566406-24.550781 0-13.535157 14.609375-24.546875 32.566406-24.546875 2.289063 0 4.582031.183594 6.808594.546875 4.503906.738281 8.722656-2.863281 8.722656-7.417969v-70.894531c0-5.480469-5.964843-9.175781-10.878906-6.71875l-96.1875 48.09375c-2.546875 1.273437-4.152344 3.875-4.152344 6.722656v46.699219c0 4.152344 3.363281 7.515625 7.511719 7.515625 4.152344 0 7.515625-3.363281 7.515625-7.515625v-42.058594l81.160156-40.578125v50.578125c-.167969 0-.332031-.003906-.5-.003906-26.242187 0-47.59375 17.757812-47.59375 39.578125 0 21.824219 21.351563 39.578125 47.59375 39.578125 26.242188 0 47.59375-17.753906 47.59375-39.578125zm0 0"/><path d="m494.285156 319.394531c-4.820312-12.054687-18.550781-17.9375-30.605468-13.117187l-80.160157 32.0625c-8.988281 3.597656-14.800781 12.179687-14.800781 21.863281v72.644531c-.164062 0-.332031-.003906-.496094-.003906-26.242187 0-47.59375 17.757812-47.59375 39.578125 0 21.824219 21.351563 39.578125 47.59375 39.578125 26.242188 0 47.59375-17.753906 47.59375-39.578125 0-.089844 0-.175781-.003906-.265625v-96.011719l65.355469-26.144531c11.90625-4.761719 17.890625-18.675781 13.117187-30.605469zm-14.03125 12.101563c-.898437 2.089844-2.554687 3.707031-4.667968 4.550781l-70.078126 28.03125c-2.851562 1.140625-4.722656 3.90625-4.722656 6.976563v101.230468c0 .085938 0 .167969.003906.253906-.085937 13.484376-14.660156 24.429688-32.566406 24.429688-17.953125 0-32.5625-11.011719-32.5625-24.546875s14.609375-24.546875 32.5625-24.546875c2.289063 0 4.578125.183594 6.808594.542969 4.503906.730469 8.71875-2.859375 8.71875-7.417969v-80.796875c0-3.503906 2.101562-6.609375 5.355469-7.910156l80.15625-32.0625c4.359375-1.742188 9.324219.382812 11.070312 4.742187.84375 2.117188.816407 4.429688-.078125 6.523438zm0 0"/><path d="m71.640625 207.40625c26.242187 0 47.59375-17.753906 47.59375-39.578125 0-.089844 0-.179687-.003906-.265625v-96.011719l65.355469-26.144531c11.90625-4.761719 17.890624-18.671875 13.117187-30.605469-4.820313-12.054687-18.550781-17.9375-30.605469-13.117187l-80.160156 32.0625c-8.988281 3.597656-14.800781 12.179687-14.800781 21.863281v72.644531c-.164063 0-.332031-.003906-.496094-.003906-26.242187 0-47.59375 17.757812-47.59375 39.578125 0 21.824219 21.351563 39.578125 47.59375 39.578125zm0-64.125c2.289063 0 4.578125.183594 6.808594.542969 4.503906.730469 8.71875-2.859375 8.71875-7.417969v-80.796875c0-3.503906 2.101562-6.609375 5.351562-7.910156l80.15625-32.0625c4.363281-1.742188 9.328125.382812 11.074219 4.742187.84375 2.113282.816406 4.429688-.082031 6.519532-.894531 2.089843-2.550781 3.707031-4.664063 4.554687l-70.078125 28.03125c-2.851562 1.140625-4.722656 3.902344-4.722656 6.976563v101.226562c0 .085938 0 .171875.003906.257812-.085937 13.480469-14.660156 24.429688-32.566406 24.429688-17.953125 0-32.5625-11.011719-32.5625-24.550781 0-13.535157 14.609375-24.542969 32.5625-24.542969zm0 0"/><path d="m176.347656 127.746094c0 13.203125 13.863282 23.546875 31.5625 23.546875 17.695313 0 31.558594-10.34375 31.558594-23.546875v-67.257813l57.113281-25.382812v40.417969c-4.78125-2.15625-10.429687-3.386719-16.53125-3.386719-17.699219 0-31.5625 10.34375-31.5625 23.546875s13.863281 23.546875 31.5625 23.546875 31.5625-10.34375 31.5625-23.546875v-72.140625c0-5.339844-5.679687-9.039063-10.566406-6.867188l-72.144531 32.0625c-2.710938 1.207031-4.460938 3.898438-4.460938 6.867188v51.980469c-4.78125-2.15625-10.429687-3.386719-16.53125-3.386719-17.699218 0-31.5625 10.34375-31.5625 23.546875zm103.703125-23.546875c-10.09375 0-16.53125-5.042969-16.53125-8.515625s6.4375-8.519532 16.53125-8.519532c10.089844 0 16.53125 5.046876 16.53125 8.519532s-6.4375 8.515625-16.53125 8.515625zm-55.609375 23.546875c0 3.472656-6.441406 8.515625-16.53125 8.515625-10.09375 0-16.535156-5.042969-16.535156-8.515625s6.441406-8.515625 16.535156-8.515625c10.089844 0 16.53125 5.042969 16.53125 8.515625zm0 0"/><path d="m131.847656 241.679688c-2.132812-1.386719-4.824218-1.597657-7.148437-.566407l-72.140625 32.066407c-2.714844 1.203124-4.464844 3.894531-4.464844 6.867187v51.980469c-4.78125-2.15625-10.425781-3.386719-16.53125-3.386719-17.699219 0-31.5625 10.34375-31.5625 23.546875s13.863281 23.546875 31.5625 23.546875 31.5625-10.34375 31.5625-23.546875v-67.257812l57.113281-25.382813v40.417969c-4.78125-2.15625-10.429687-3.386719-16.535156-3.386719-17.699219 0-31.5625 10.34375-31.5625 23.546875s13.863281 23.546875 31.5625 23.546875 31.5625-10.34375 31.5625-23.546875v-72.140625c0-2.546875-1.285156-4.917969-3.417969-6.304687zm-100.285156 119.023437c-10.09375 0-16.53125-5.042969-16.53125-8.515625s6.4375-8.519531 16.53125-8.519531c10.089844 0 16.53125 5.046875 16.53125 8.519531s-6.4375 8.515625-16.53125 8.515625zm72.140625-32.0625c-10.089844 0-16.53125-5.042969-16.53125-8.515625 0-3.476562 6.441406-8.519531 16.53125-8.519531 10.09375 0 16.535156 5.042969 16.535156 8.519531 0 3.472656-6.441406 8.515625-16.535156 8.515625zm0 0"/></svg>