<?xml version="1.0" encoding="iso-8859-1"?>
<!-- Generator: Adobe Illustrator 19.0.0, SVG Export Plug-In . SVG Version: 6.00 Build 0)  -->
<svg version="1.1" id="Layer_1" xmlns="http://www.w3.org/2000/svg" xmlns:xlink="http://www.w3.org/1999/xlink" x="0px" y="0px"
	 viewBox="0 0 504.4 504.4" style="enable-background:new 0 0 504.4 504.4;" xml:space="preserve">
<path style="fill:#BC3F2C;" d="M500.4,445.2c0,30-23.2,55.2-53.2,55.2h-388c-30,0-55.2-25.2-55.2-55.2v-388C4,27.2,29.2,4,59.2,4
	h388c30,0,53.2,23.2,53.2,53.2V445.2z"/>
<path d="M445.2,504.4h-388c-32,0-57.2-25.2-57.2-57.2v-388C0,26.8,25.6,0,57.2,0h388c32,0,59.2,27.2,59.2,59.2v388
	C504.4,478.8,478,504.4,445.2,504.4z M57.6,8.4C30.4,8.4,8.4,31.2,8.4,59.6v388c0,27.6,21.6,49.2,49.2,49.2h388
	c28,0,51.2-22,51.2-49.2v-388c0-27.6-23.2-51.2-51.2-51.2H57.6z"/>
<g>
</g>
<g>
</g>
<g>
</g>
<g>
</g>
<g>
</g>
<g>
</g>
<g>
</g>
<g>
</g>
<g>
</g>
<g>
</g>
<g>
</g>
<g>
</g>
<g>
</g>
<g>
</g>
<g>
</g>
</svg>
